<mxfile host="app.diagrams.net" modified="2021-03-03T11:37:59.978Z" agent="5.0 (Macintosh; Intel Mac OS X 11_2_0) AppleWebKit/537.36 (KHTML, like Gecko) Chrome/88.0.4324.192 Safari/537.36" etag="FqJyQkox6sK3VIMTmDPO" version="14.4.3" type="github">
  <diagram id="lfB344EopuNthBP37h_Z" name="第 1 页">
    <mxGraphModel dx="1426" dy="737" grid="1" gridSize="10" guides="1" tooltips="1" connect="1" arrows="1" fold="1" page="1" pageScale="1" pageWidth="850" pageHeight="1100" math="0" shadow="0">
      <root>
        <mxCell id="0" />
        <mxCell id="1" parent="0" />
        <mxCell id="1QesOeD780qDSvLuGFu5-3" value="" style="edgeStyle=orthogonalEdgeStyle;rounded=0;orthogonalLoop=1;jettySize=auto;html=1;" edge="1" parent="1" source="1QesOeD780qDSvLuGFu5-1" target="1QesOeD780qDSvLuGFu5-2">
          <mxGeometry relative="1" as="geometry" />
        </mxCell>
        <mxCell id="1QesOeD780qDSvLuGFu5-1" value="ViewModel" style="rounded=1;whiteSpace=wrap;html=1;fillColor=#d5e8d4;strokeColor=#82b366;" vertex="1" parent="1">
          <mxGeometry x="220" y="260" width="90" height="50" as="geometry" />
        </mxCell>
        <mxCell id="1QesOeD780qDSvLuGFu5-2" value="LiveData" style="ellipse;whiteSpace=wrap;html=1;rounded=1;strokeColor=#82b366;fillColor=#d5e8d4;" vertex="1" parent="1">
          <mxGeometry x="440" y="257.5" width="55" height="55" as="geometry" />
        </mxCell>
        <mxCell id="1QesOeD780qDSvLuGFu5-5" value="拥有一个或多个" style="text;html=1;align=center;verticalAlign=middle;resizable=0;points=[];autosize=1;" vertex="1" parent="1">
          <mxGeometry x="320" y="260" width="100" height="20" as="geometry" />
        </mxCell>
        <mxCell id="1QesOeD780qDSvLuGFu5-7" value="" style="edgeStyle=orthogonalEdgeStyle;rounded=0;orthogonalLoop=1;jettySize=auto;html=1;" edge="1" parent="1" source="1QesOeD780qDSvLuGFu5-6" target="1QesOeD780qDSvLuGFu5-1">
          <mxGeometry relative="1" as="geometry" />
        </mxCell>
        <mxCell id="1QesOeD780qDSvLuGFu5-11" value="" style="edgeStyle=orthogonalEdgeStyle;rounded=0;orthogonalLoop=1;jettySize=auto;html=1;" edge="1" parent="1" source="1QesOeD780qDSvLuGFu5-6" target="1QesOeD780qDSvLuGFu5-10">
          <mxGeometry relative="1" as="geometry" />
        </mxCell>
        <mxCell id="1QesOeD780qDSvLuGFu5-13" style="edgeStyle=orthogonalEdgeStyle;rounded=0;orthogonalLoop=1;jettySize=auto;html=1;entryX=0.5;entryY=1;entryDx=0;entryDy=0;" edge="1" parent="1" source="1QesOeD780qDSvLuGFu5-15" target="1QesOeD780qDSvLuGFu5-2">
          <mxGeometry relative="1" as="geometry" />
        </mxCell>
        <mxCell id="1QesOeD780qDSvLuGFu5-6" value="View(Activity/Fragemnt)" style="rounded=1;whiteSpace=wrap;html=1;fillColor=#dae8fc;strokeColor=#6c8ebf;" vertex="1" parent="1">
          <mxGeometry x="195" y="410" width="140" height="30" as="geometry" />
        </mxCell>
        <mxCell id="1QesOeD780qDSvLuGFu5-9" value="持有引用，当特定交互下发生数据更改时&lt;br&gt;调用ViewMode的相应方法" style="text;html=1;align=center;verticalAlign=middle;resizable=0;points=[];autosize=1;" vertex="1" parent="1">
          <mxGeometry x="150" y="350" width="230" height="30" as="geometry" />
        </mxCell>
        <mxCell id="1QesOeD780qDSvLuGFu5-14" style="edgeStyle=orthogonalEdgeStyle;rounded=0;orthogonalLoop=1;jettySize=auto;html=1;exitX=1;exitY=0.5;exitDx=0;exitDy=0;" edge="1" parent="1" source="1QesOeD780qDSvLuGFu5-10">
          <mxGeometry relative="1" as="geometry">
            <mxPoint x="400" y="420" as="targetPoint" />
          </mxGeometry>
        </mxCell>
        <mxCell id="1QesOeD780qDSvLuGFu5-10" value="observer(实现Observer&amp;lt;T&amp;gt;接口)" style="whiteSpace=wrap;html=1;rounded=1;strokeColor=#6c8ebf;fillColor=#dae8fc;" vertex="1" parent="1">
          <mxGeometry x="205" y="505" width="120" height="60" as="geometry" />
        </mxCell>
        <mxCell id="1QesOeD780qDSvLuGFu5-12" value="持有观察者对象" style="text;html=1;align=center;verticalAlign=middle;resizable=0;points=[];autosize=1;" vertex="1" parent="1">
          <mxGeometry x="270" y="460" width="100" height="20" as="geometry" />
        </mxCell>
        <mxCell id="1QesOeD780qDSvLuGFu5-18" value="" style="edgeStyle=orthogonalEdgeStyle;rounded=0;orthogonalLoop=1;jettySize=auto;html=1;" edge="1" parent="1" source="1QesOeD780qDSvLuGFu5-17" target="1QesOeD780qDSvLuGFu5-1">
          <mxGeometry relative="1" as="geometry" />
        </mxCell>
        <mxCell id="1QesOeD780qDSvLuGFu5-17" value="Model数据" style="rounded=1;whiteSpace=wrap;html=1;fillColor=#e1d5e7;strokeColor=#9673a6;" vertex="1" parent="1">
          <mxGeometry x="60" y="265" width="80" height="40" as="geometry" />
        </mxCell>
        <mxCell id="1QesOeD780qDSvLuGFu5-22" value="传递数据" style="text;html=1;align=center;verticalAlign=middle;resizable=0;points=[];autosize=1;" vertex="1" parent="1">
          <mxGeometry x="145" y="257.5" width="60" height="20" as="geometry" />
        </mxCell>
        <mxCell id="1QesOeD780qDSvLuGFu5-24" style="edgeStyle=orthogonalEdgeStyle;rounded=0;orthogonalLoop=1;jettySize=auto;html=1;entryX=0;entryY=0.5;entryDx=0;entryDy=0;" edge="1" parent="1" source="1QesOeD780qDSvLuGFu5-23" target="1QesOeD780qDSvLuGFu5-6">
          <mxGeometry relative="1" as="geometry" />
        </mxCell>
        <mxCell id="1QesOeD780qDSvLuGFu5-23" value="用户的交互操作" style="ellipse;whiteSpace=wrap;html=1;aspect=fixed;fillColor=#fff2cc;strokeColor=#d6b656;" vertex="1" parent="1">
          <mxGeometry x="60" y="385" width="80" height="80" as="geometry" />
        </mxCell>
        <mxCell id="1QesOeD780qDSvLuGFu5-15" value="向LiveData订阅数据更新事件" style="text;html=1;align=center;verticalAlign=middle;resizable=0;points=[];autosize=1;" vertex="1" parent="1">
          <mxGeometry x="382.5" y="390" width="170" height="20" as="geometry" />
        </mxCell>
        <mxCell id="1QesOeD780qDSvLuGFu5-25" style="edgeStyle=orthogonalEdgeStyle;rounded=0;orthogonalLoop=1;jettySize=auto;html=1;entryX=0.5;entryY=1;entryDx=0;entryDy=0;" edge="1" parent="1" source="1QesOeD780qDSvLuGFu5-6" target="1QesOeD780qDSvLuGFu5-15">
          <mxGeometry relative="1" as="geometry">
            <mxPoint x="335" y="425" as="sourcePoint" />
            <mxPoint x="467.5" y="312.5" as="targetPoint" />
            <Array as="points">
              <mxPoint x="468" y="425" />
            </Array>
          </mxGeometry>
        </mxCell>
        <mxCell id="1QesOeD780qDSvLuGFu5-26" value="通过setValue更改LiveData数据" style="text;html=1;align=center;verticalAlign=middle;resizable=0;points=[];autosize=1;" vertex="1" parent="1">
          <mxGeometry x="280" y="292.5" width="180" height="20" as="geometry" />
        </mxCell>
      </root>
    </mxGraphModel>
  </diagram>
</mxfile>
